<mxfile host="Electron" modified="2023-05-31T02:55:13.529Z" agent="Mozilla/5.0 (Windows NT 10.0; Win64; x64) AppleWebKit/537.36 (KHTML, like Gecko) draw.io/21.2.8 Chrome/112.0.5615.165 Electron/24.2.0 Safari/537.36" etag="-gritAZYA9732OBXyI4H" version="21.2.8" type="device">
  <diagram name="PÃ¡gina-1" id="Y8o-rg8Wvkwhj7GjItM_">
    <mxGraphModel dx="1036" dy="614" grid="1" gridSize="10" guides="1" tooltips="1" connect="1" arrows="1" fold="1" page="1" pageScale="1" pageWidth="827" pageHeight="1169" math="0" shadow="0">
      <root>
        <mxCell id="0" />
        <mxCell id="1" parent="0" />
        <mxCell id="yaL6d-ZCGKKF7r3tQCJt-1" value="&lt;font style=&quot;font-size: 18px;&quot;&gt;&lt;u&gt;:Sistema&lt;/u&gt;&lt;/font&gt;" style="rounded=0;whiteSpace=wrap;html=1;" parent="1" vertex="1">
          <mxGeometry x="320" y="200" width="120" height="60" as="geometry" />
        </mxCell>
        <mxCell id="yaL6d-ZCGKKF7r3tQCJt-2" value="" style="endArrow=none;html=1;rounded=0;entryX=0;entryY=0.5;entryDx=0;entryDy=0;" parent="1" target="yaL6d-ZCGKKF7r3tQCJt-1" edge="1">
          <mxGeometry width="50" height="50" relative="1" as="geometry">
            <mxPoint x="30" y="230" as="sourcePoint" />
            <mxPoint x="540" y="300" as="targetPoint" />
          </mxGeometry>
        </mxCell>
        <mxCell id="yaL6d-ZCGKKF7r3tQCJt-3" value="&lt;font style=&quot;font-size: 14px;&quot;&gt;mostrarOfertasLaborales(): Set&amp;lt;DtOferta&amp;gt;&lt;/font&gt;" style="text;html=1;strokeColor=none;fillColor=none;align=center;verticalAlign=middle;whiteSpace=wrap;rounded=0;" parent="1" vertex="1">
          <mxGeometry x="20" y="180" width="290" height="30" as="geometry" />
        </mxCell>
        <mxCell id="yaL6d-ZCGKKF7r3tQCJt-4" value="" style="endArrow=classic;html=1;rounded=0;" parent="1" edge="1">
          <mxGeometry width="50" height="50" relative="1" as="geometry">
            <mxPoint x="120" y="210" as="sourcePoint" />
            <mxPoint x="210" y="210" as="targetPoint" />
          </mxGeometry>
        </mxCell>
        <mxCell id="yaL6d-ZCGKKF7r3tQCJt-7" value="" style="rounded=0;whiteSpace=wrap;html=1;" parent="1" vertex="1">
          <mxGeometry x="740" y="190" width="120" height="60" as="geometry" />
        </mxCell>
        <mxCell id="yaL6d-ZCGKKF7r3tQCJt-8" value="&lt;font style=&quot;font-size: 18px;&quot;&gt;&lt;u&gt;:OfertaLaboral&lt;/u&gt;&lt;/font&gt;" style="rounded=0;whiteSpace=wrap;html=1;" parent="1" vertex="1">
          <mxGeometry x="730" y="200" width="120" height="60" as="geometry" />
        </mxCell>
        <mxCell id="yaL6d-ZCGKKF7r3tQCJt-9" value="" style="endArrow=none;html=1;rounded=0;entryX=0;entryY=0.5;entryDx=0;entryDy=0;exitX=1;exitY=0.5;exitDx=0;exitDy=0;" parent="1" source="yaL6d-ZCGKKF7r3tQCJt-1" target="yaL6d-ZCGKKF7r3tQCJt-8" edge="1">
          <mxGeometry width="50" height="50" relative="1" as="geometry">
            <mxPoint x="530" y="350" as="sourcePoint" />
            <mxPoint x="580" y="300" as="targetPoint" />
          </mxGeometry>
        </mxCell>
        <mxCell id="yaL6d-ZCGKKF7r3tQCJt-10" value="&lt;font style=&quot;font-size: 14px;&quot;&gt;1* [foreach] : o := next()&lt;/font&gt;" style="text;html=1;strokeColor=none;fillColor=none;align=center;verticalAlign=middle;whiteSpace=wrap;rounded=0;" parent="1" vertex="1">
          <mxGeometry x="490" y="180" width="190" height="30" as="geometry" />
        </mxCell>
        <mxCell id="yaL6d-ZCGKKF7r3tQCJt-11" value="" style="endArrow=classic;html=1;rounded=0;" parent="1" edge="1">
          <mxGeometry width="50" height="50" relative="1" as="geometry">
            <mxPoint x="550" y="210" as="sourcePoint" />
            <mxPoint x="640" y="210" as="targetPoint" />
          </mxGeometry>
        </mxCell>
        <mxCell id="yaL6d-ZCGKKF7r3tQCJt-12" value="" style="endArrow=none;html=1;rounded=0;entryX=0.5;entryY=1;entryDx=0;entryDy=0;exitX=0;exitY=0.5;exitDx=0;exitDy=0;" parent="1" source="yaL6d-ZCGKKF7r3tQCJt-13" target="yaL6d-ZCGKKF7r3tQCJt-1" edge="1">
          <mxGeometry width="50" height="50" relative="1" as="geometry">
            <mxPoint x="730" y="380" as="sourcePoint" />
            <mxPoint x="580" y="300" as="targetPoint" />
            <Array as="points">
              <mxPoint x="380" y="360" />
            </Array>
          </mxGeometry>
        </mxCell>
        <mxCell id="yaL6d-ZCGKKF7r3tQCJt-13" value="&lt;font style=&quot;font-size: 18px;&quot;&gt;&lt;u&gt;o:OfertaLaboral&lt;/u&gt;&lt;/font&gt;" style="rounded=0;whiteSpace=wrap;html=1;" parent="1" vertex="1">
          <mxGeometry x="730" y="330" width="130" height="60" as="geometry" />
        </mxCell>
        <mxCell id="yaL6d-ZCGKKF7r3tQCJt-14" value="&lt;font style=&quot;font-size: 14px;&quot;&gt;2* : dt := getDtOferta() : DtOferta&lt;/font&gt;" style="text;html=1;strokeColor=none;fillColor=none;align=center;verticalAlign=middle;whiteSpace=wrap;rounded=0;" parent="1" vertex="1">
          <mxGeometry x="450" y="300" width="230" height="30" as="geometry" />
        </mxCell>
        <mxCell id="yaL6d-ZCGKKF7r3tQCJt-15" value="" style="endArrow=classic;html=1;rounded=0;" parent="1" edge="1">
          <mxGeometry width="50" height="50" relative="1" as="geometry">
            <mxPoint x="530" y="340" as="sourcePoint" />
            <mxPoint x="620" y="340" as="targetPoint" />
          </mxGeometry>
        </mxCell>
        <mxCell id="yaL6d-ZCGKKF7r3tQCJt-16" value="El sistema retorna un set de DtOferta con todos los dt recibidos" style="shape=note;whiteSpace=wrap;html=1;backgroundOutline=1;darkOpacity=0.05;fillColor=#fff2cc;strokeColor=#d6b656;" parent="1" vertex="1">
          <mxGeometry x="290" y="10" width="130" height="120" as="geometry" />
        </mxCell>
        <mxCell id="yaL6d-ZCGKKF7r3tQCJt-18" value="" style="endArrow=none;dashed=1;html=1;rounded=0;entryX=0.5;entryY=1;entryDx=0;entryDy=0;entryPerimeter=0;" parent="1" source="yaL6d-ZCGKKF7r3tQCJt-1" target="yaL6d-ZCGKKF7r3tQCJt-16" edge="1">
          <mxGeometry width="50" height="50" relative="1" as="geometry">
            <mxPoint x="530" y="340" as="sourcePoint" />
            <mxPoint x="580" y="290" as="targetPoint" />
          </mxGeometry>
        </mxCell>
        <mxCell id="Q9dPj8DVl7Z2892-OSDV-1" value="&lt;div&gt;&amp;lt;&amp;lt;datatype&amp;gt;&amp;gt;&amp;nbsp;&lt;/div&gt;&lt;div&gt;&amp;nbsp; &amp;nbsp; &amp;nbsp; &amp;nbsp;DtOferta&lt;/div&gt;&lt;div&gt;nroExpediente : String&lt;/div&gt;&lt;div&gt;titulo : String&lt;/div&gt;&lt;div&gt;descripcion : String&lt;/div&gt;&lt;div&gt;cantHorasSem : Int&lt;/div&gt;&lt;div&gt;conjAsign : Set (String)&lt;/div&gt;&lt;div&gt;salarioMin : Float&lt;/div&gt;&lt;div&gt;salarioMax : Float&lt;/div&gt;&lt;div&gt;fechaCom : Date&lt;/div&gt;&lt;div&gt;fechaFin : Date&lt;/div&gt;&lt;div&gt;cantPuest : Int&lt;/div&gt;" style="shape=note;whiteSpace=wrap;html=1;backgroundOutline=1;darkOpacity=0.05;fillColor=#fff2cc;strokeColor=#d6b656;" parent="1" vertex="1">
          <mxGeometry x="170" y="310" width="160" height="220" as="geometry" />
        </mxCell>
        <mxCell id="Q9dPj8DVl7Z2892-OSDV-2" value="" style="endArrow=none;dashed=1;html=1;rounded=0;exitX=0;exitY=0;exitDx=90;exitDy=0;exitPerimeter=0;entryX=0;entryY=1;entryDx=0;entryDy=0;" parent="1" source="Q9dPj8DVl7Z2892-OSDV-1" target="yaL6d-ZCGKKF7r3tQCJt-1" edge="1">
          <mxGeometry width="50" height="50" relative="1" as="geometry">
            <mxPoint x="470" y="240" as="sourcePoint" />
            <mxPoint x="520" y="190" as="targetPoint" />
          </mxGeometry>
        </mxCell>
      </root>
    </mxGraphModel>
  </diagram>
</mxfile>
